<svg width="151" height="33" viewBox="0 0 151 33" fill="none" xmlns="http://www.w3.org/2000/svg">
<path d="M0 19.3854C0 19.0093 0.0342347 18.5648 0.136868 18.0177L1.88195 8.17054C2.70316 3.52048 5.54315 1.50317 11.0864 1.50317C13.3789 1.50317 15.432 1.87926 17.6561 2.49474L16.5269 6.80285C14.6107 6.39255 12.2155 6.05064 10.5731 6.05064C8.14365 6.05064 7.15137 6.87123 6.74073 9.26462L5.33789 17.1971C5.26942 17.5732 5.23525 18.0177 5.23525 18.257C5.23525 19.8298 6.1249 20.4111 8.04105 20.4111C9.68346 20.4111 11.9076 20.2059 13.9606 19.7615L14.1317 24.0696C12.3182 24.5824 9.78613 24.9586 7.25407 24.9586C2.22412 24.9586 0 22.5652 0 19.3854Z" fill="white"/>
<path d="M28.8799 13.3336C28.9141 13.1284 28.9484 12.9233 28.9484 12.7865C28.9484 12.4446 28.7773 12.3078 28.2983 12.3078C27.4086 12.3078 25.2871 13.1968 23.9869 13.8806L22.1049 24.6168H17.2803L21.4205 1.16137L26.3478 0.477539L24.808 9.29898C26.8269 8.27324 29.0852 7.62358 30.8987 7.62358C33.1228 7.62358 33.944 8.88868 33.944 11.0085C33.944 11.5898 33.9098 12.2394 33.773 12.9233L31.7199 24.6168H26.8953L28.8799 13.3336Z" fill="white"/>
<path d="M45.3376 24.6167L45.2007 23.1807C44.0373 24.0697 42.2923 24.9586 39.8971 24.9586C36.27 24.9586 35.5515 22.7704 36.2016 19.0435L36.9886 14.5644C37.6729 10.5982 39.2469 7.65771 45.8166 7.65771C47.5617 7.65771 49.8542 7.96545 52.181 8.68345L49.4094 24.6167H45.3376ZM40.9578 19.5564C40.8209 20.4454 41.0262 20.7873 41.8816 20.7873C43.1134 20.7873 44.4479 20.0692 45.5429 19.1461L46.8089 11.9317C46.1588 11.7949 45.4402 11.7607 44.927 11.7607C42.4291 11.7607 42.1211 12.9916 41.8132 14.5986L40.9578 19.5564Z" fill="white"/>
<path d="M64.8758 12C62.7543 13.1626 61.9674 13.607 60.0512 14.8038L58.3061 24.6167H53.4814L56.3215 8.37575L60.5644 7.65771L60.4618 9.91434C62.07 8.95699 63.3702 8.27316 64.8074 7.65771L64.8758 12Z" fill="white"/>
<path d="M71.7875 7.9652L71.9243 9.40124C73.1219 8.40971 74.8328 7.62329 77.228 7.62329C80.855 7.62329 81.7447 9.81154 81.0945 13.5384L80.3075 18.0175C79.6232 21.9838 78.5967 24.9584 71.5821 24.9584C71.0689 24.9584 70.0082 24.89 69.5633 24.7874L68.3999 31.3522L63.4727 32.036L67.7156 7.9652H71.7875ZM76.3726 12.9572C76.5437 12.0682 76.3041 11.6579 75.4487 11.6579C73.7378 11.6579 72.506 12.5469 71.5821 13.3675L70.2819 20.787C70.8294 20.8896 71.4795 20.9238 72.1638 20.9238C74.6617 20.9238 75.175 19.5904 75.4829 17.9834L76.3726 12.9572Z" fill="white"/>
<path d="M82.3613 23.8643L83.2852 20.3084C84.5512 20.7529 85.9884 21.1632 87.8018 21.1632C89.4101 21.1632 89.5127 20.6845 89.6496 19.8981C89.7865 19.1459 89.3074 18.7356 87.4255 17.744C83.9353 15.8977 83.7985 14.6668 84.2433 12.1708C84.8934 8.58068 85.9542 7.62329 90.5735 7.62329C92.1475 7.62329 94.1663 7.96524 95.535 8.40971L94.748 12.034C93.5162 11.6921 91.7027 11.4186 90.5393 11.4186C89.1022 11.4186 88.8969 11.5895 88.7258 12.4785C88.5889 13.2649 88.76 13.4359 90.3682 14.2907C94.2006 16.3422 94.7822 17.0602 94.3032 19.693C93.6188 23.454 92.5239 24.9584 87.5282 24.9584C85.9884 24.9584 83.8327 24.514 82.3613 23.8643Z" fill="white"/>
<path d="M104.431 11.8291L102.96 20.1377C102.925 20.3086 102.891 20.4796 102.891 20.5821C102.891 20.8215 103.028 20.9241 103.37 20.9241C104.191 20.9241 105.115 20.5821 105.971 20.2403L106.929 23.591C105.56 24.3433 103.575 24.9587 101.625 24.9587C99.1956 24.9587 97.8953 23.7962 97.8953 21.8131C97.8953 21.5737 97.9296 21.3343 97.9638 21.095L99.6062 11.8291H97.1426L97.8269 7.96548H100.291L100.975 3.96508L105.936 3.28125L105.115 7.96552H109.084L108.126 11.8292H104.431V11.8291Z" fill="white"/>
<path d="M125.542 19.0775H116.03L113.19 24.6165H110.179L121.641 1.84497H125.748L129.306 24.6165H126.363L125.542 19.0775ZM117.193 16.6157H125.166L123.421 3.82807L117.193 16.6157Z" fill="white"/>
<path d="M142.857 16.3422H137.142L135.671 24.6165H132.797L136.835 1.84497H144.978C149.255 1.84497 151 3.55454 151 6.32409C151 6.70018 150.966 7.17885 150.898 7.55498L150.316 10.8374C149.837 13.5727 148.913 15.1455 145.799 15.9661L150.248 24.6165H147.1L142.857 16.3422ZM148.024 7.55498C148.092 7.17885 148.126 6.87115 148.126 6.59762C148.126 4.95644 147.1 4.40937 144.773 4.40937H139.23L137.587 13.812H143.13C145.936 13.812 147.065 12.9915 147.476 10.6322L148.024 7.55498Z" fill="white"/>
</svg>
